{"title":"Fantastic Voyage (1966) Raquel Welch STEREO (Opt.SWESUBS)","uid":4363001,"size":731956027,"categoryP":"video","categoryS":"movies","magnet":"?xt=urn:btih:497e046d5a89441f1abe4b8d2527cf1c0dce6c32&amp;dn=Fantastic+Voyage+%281966%29+Raquel+Welch+STEREO+%28Opt.SWESUBS%29&amp;tr=udp%3A%2F%2Ftracker.openbittorrent.com%3A80&amp;tr=udp%3A%2F%2Fopen.demonii.com%3A1337&amp;tr=udp%3A%2F%2Ftracker.coppersurfer.tk%3A6969&amp;tr=udp%3A%2F%2Fexodus.desync.com%3A6969","seeders":1,"leechers":0,"uploader":"Kuthumi","files":-1,"time":1219766382,"description":"Optional Swedish subs in separate idx/sub files. &lt;a href=&quot;\nhttp://www.imdb.com/title/tt0060397/&quot; rel=&quot;nofollow&quot; target=&quot;_NEW&quot;&gt;\nhttp://www.imdb.com/title/tt0060397/&lt;/a&gt;\n\nClassic Sci-Fi about the submarine with a small crew shrunken to microscopic size and injected into the bloodstream of a scientist to save his life. Surprising stereo sound and widescreen.\n\nI had no idea that this film still was so popular. A recent upload of the full DVD gathered hundreds of downloaders, so I made this rip for those of you who cannot handle such dinosaurs. Thanks to Wormman for the upload.\n\nDVDrip XviD 2-pass.\nWidescreen 704x368, stereo AC3.\n\nBurn tested, runs well in both my standalone DivX player.\n\nSource: PAL retail (note that PAL/NTSC will give no problems for avi files)\n\nFormat/Info                      : Audio Video Interleave\nFile size                        : 698 MiB\nDuration                         : 1h 36mn\nOveral bit rate                  : 1015 Kbps\n\nVideo\nFormat                           : MPEG-4 Visual\nFormat profile                   : Streaming Video@L1\nFormat settings, BVOP            : Yes\nFormat settings, QPel            : No\nFormat settings, GMC             : No warppoints\nFormat settings, Matrix          : Default\nMuxing mode                      : Packet Bitstream\nCodec ID                         : XVID\nCodec ID/Hint                    : XviD\nDuration                         : 1h 36mn\nBit rate                         : 877 Kbps\nWidth                            : 704 pixels\nHeight                           : 368 pixels\nDisplay aspect ratio             : 1.913\nFrame rate                       : 25.000 fps\nResolution                       : 8 bits\nColorimetry                      : 4:2:0\nScan type                        : Progressive\nBits/(Pixel*Frame)               : 0.135\nStream size                      : 603 MiB\nWriting library                  : XviD 1.2.0.dev47 (UTC 2006-11-01)\n\nAudio\nFormat                           : MPEG Audio\nFormat version                   : Version 1\nFormat profile                   : Layer 3\nCodec ID                         : 55\nCodec ID/Hint                    : MP3\nDuration                         : 1h 36mn\nBit rate mode                    : Constant\nBit rate                         : 128 Kbps\nMinimum bit rate                 : 128 Kbps\nChannel(s)                       : 2 channels\nSampling rate                    : 48.0 KHz\nResolution                       : 16 bits\nStream size                      : 88.0 MiB\nWriting library                  : LAME3.97 \nEncoding settings                : CBR\n","torrent":{"xt":"urn:btih:497e046d5a89441f1abe4b8d2527cf1c0dce6c32","amp;dn":"Fantastic+Voyage+%281966%29+Raquel+Welch+STEREO+%28Opt.SWESUBS%29","amp;tr":["udp%3A%2F%2Ftracker.openbittorrent.com%3A80","udp%3A%2F%2Fopen.demonii.com%3A1337","udp%3A%2F%2Ftracker.coppersurfer.tk%3A6969","udp%3A%2F%2Fexodus.desync.com%3A6969"],"infoHash":"497e046d5a89441f1abe4b8d2527cf1c0dce6c32","infoHashBuffer":{"type":"Buffer","data":[73,126,4,109,90,137,68,31,26,190,75,141,37,39,207,28,13,206,108,50]},"announce":[],"urlList":[]}}